<?xml version="1.0" encoding="UTF-8"?>
<svg version="1.1" xmlns="http://www.w3.org/2000/svg" width="500" height="500">
<path d="M0 0 C165 0 330 0 500 0 C500 165 500 330 500 500 C335 500 170 500 0 500 C0 335 0 170 0 0 Z " fill="#FEFEFE" transform="translate(0,0)"/>
<path d="M0 0 C1.63365519 -0.00461541 3.26730621 -0.01097261 4.90094864 -0.01890898 C9.36613534 -0.03553791 13.83097811 -0.02738534 18.2961657 -0.0149641 C23.12110181 -0.00588933 27.94598004 -0.01989546 32.77090454 -0.03088379 C42.21403216 -0.04864852 51.65703243 -0.0448379 61.10016499 -0.03323323 C68.77762432 -0.02419006 76.45504802 -0.02297873 84.13251114 -0.02732849 C85.2263104 -0.02794142 86.32010967 -0.02855436 87.44705436 -0.02918586 C89.66929499 -0.0304648 91.89153561 -0.03176166 94.11377622 -0.03307623 C114.94111735 -0.04447631 135.768388 -0.03137783 156.59571756 -0.00987476 C174.45220354 0.00799067 192.30858548 0.00489555 210.16506958 -0.0135498 C230.91611732 -0.03497524 251.6671033 -0.04337246 272.41816056 -0.03110075 C274.63271784 -0.0298266 276.84727513 -0.02856911 279.06183243 -0.02732849 C280.15134597 -0.02671139 281.24085951 -0.02609429 282.36338862 -0.02545848 C290.02731729 -0.02201024 297.69120666 -0.02782271 305.35512924 -0.0372467 C314.70125341 -0.04848687 324.04724327 -0.04538444 333.39335214 -0.02412373 C338.15854125 -0.01363971 342.92350674 -0.0094461 347.688694 -0.02272034 C352.057323 -0.03470543 356.42552271 -0.02798166 360.79411317 -0.00681013 C362.3680252 -0.00236978 363.94197407 -0.00455205 365.51586209 -0.01431328 C378.47667627 -0.08848204 390.96575494 1.21956045 400.73098755 10.50793457 C401.43094849 11.16793457 402.13090942 11.82793457 402.8520813 12.50793457 C408.1358436 17.93712153 410.63547377 23.28610742 412.73098755 30.50793457 C413.06098755 31.49793457 413.39098755 32.48793457 413.73098755 33.50793457 C413.73098755 52.97793457 413.73098755 72.44793457 413.73098755 92.50793457 C261.27098755 92.50793457 108.81098755 92.50793457 -48.26901245 92.50793457 C-48.26901245 22.67728941 -48.26901245 22.67728941 -36.26901245 10.50793457 C-25.45923583 1.35647596 -13.67522849 -0.08455139 0 0 Z " fill="#FEFDFE" transform="translate(67.26901245117188,63.4920654296875)"/>
<path d="M0 0 C1.02141724 -0.00262956 1.02141724 -0.00262956 2.06346917 -0.00531223 C4.3558769 -0.00998142 6.64822146 -0.00750437 8.94063187 -0.00507832 C10.59655282 -0.00694583 12.25247333 -0.0092463 13.90839314 -0.01194364 C18.46734853 -0.0180755 23.02628561 -0.01792641 27.58524418 -0.01674926 C32.49880444 -0.0165456 37.41235877 -0.02206072 42.32591629 -0.02680683 C51.95611443 -0.03512175 61.58630645 -0.03786206 71.21650788 -0.03841921 C79.04338606 -0.03889401 86.87026221 -0.04094697 94.69713974 -0.04411983 C116.87866929 -0.05292903 139.06019399 -0.05753885 161.2417253 -0.05678936 C163.03633853 -0.05672943 163.03633853 -0.05672943 164.86720657 -0.05666828 C166.06507322 -0.0566274 167.26293987 -0.05658652 168.49710551 -0.0565444 C187.91043397 -0.05613795 207.32374303 -0.06570658 226.73706588 -0.07980665 C246.66161117 -0.09416403 266.586147 -0.10107717 286.5106976 -0.10021287 C297.70035066 -0.09988066 308.8899834 -0.10263824 320.07963181 -0.11339092 C329.60718691 -0.12248757 339.13471248 -0.12467809 348.66227004 -0.1178815 C353.52394931 -0.11461195 358.38557188 -0.11457527 363.24724579 -0.12323475 C367.6984235 -0.13108154 372.14949937 -0.12968695 376.60067454 -0.12095062 C378.21037756 -0.1194116 379.8200881 -0.12124688 381.42978224 -0.12681069 C395.80567475 -0.17320625 406.36639662 2.14795858 418.5019722 10.31613445 C433.00373557 25.14748335 435.02597596 39.66480569 434.9160347 59.59738445 C434.9194104 61.76726839 434.92426926 63.93715048 434.93053055 66.10702801 C434.93786627 70.63573645 434.9273031 75.16394891 434.90382767 79.6925993 C434.87534247 85.46563236 434.89176419 91.23750275 434.92168999 97.01049328 C434.93985237 101.48555367 434.93396406 105.96034338 434.92105103 110.43541241 C434.91774168 112.56264163 434.92171589 114.68989632 434.93344879 116.81709576 C435.00967684 134.5170072 432.85874182 147.05982752 420.1894722 160.2809782 C407.86610135 172.09821061 393.53793847 173.43284455 377.2479744 173.38260174 C375.61874896 173.38490824 373.98952456 173.38808603 372.36030233 173.39205623 C367.8982231 173.40038705 363.43622968 173.39628672 358.97415018 173.39008379 C354.1560512 173.38555323 349.33796683 173.39254611 344.51987076 173.39804363 C335.08652876 173.40693321 325.6532186 173.40501743 316.21987535 173.39921835 C308.55141693 173.39469963 300.88296743 173.39408987 293.21450806 173.39626598 C292.12263573 173.39657245 291.0307634 173.39687892 289.90580403 173.39719467 C287.68758588 173.39783413 285.46936773 173.39848256 283.25114958 173.39913985 C262.45394265 173.40484201 241.65675336 173.39828732 220.85954933 173.38753912 C203.0229002 173.37860622 185.18627711 173.38015372 167.34962845 173.38937664 C146.62939124 173.40008561 125.9091695 173.40429006 105.18892992 173.39815211 C102.97830924 173.39751503 100.76768855 173.39688629 98.55706787 173.39626598 C96.92563662 173.39580316 96.92563662 173.39580316 95.26124717 173.39533098 C87.60492933 173.39360574 79.94862131 173.39651553 72.29230499 173.40122509 C62.95745785 173.40684098 53.62264434 173.40530266 44.28780104 173.3946636 C39.5269805 173.38941607 34.76621598 173.38733447 30.00539589 173.39396191 C25.64307665 173.39994262 21.28086509 173.39661133 16.91855554 173.3860068 C15.34461611 173.38378172 13.7706675 173.38488891 12.19673403 173.38975838 C-4.76374529 173.43818566 -18.29541746 171.46029139 -31.1855278 159.44113445 C-36.02364781 154.28833997 -39.10987114 148.65272458 -41.7480278 142.12863445 C-42.09555603 141.27911205 -42.44308426 140.42958965 -42.80114365 139.55432415 C-44.02580521 135.12367603 -44.05102495 131.0337332 -44.05442429 126.4582243 C-44.0627478 125.50126659 -44.07107132 124.54430889 -44.07964706 123.55835247 C-44.10369394 120.40205056 -44.11251412 117.2459557 -44.11912155 114.08957195 C-44.12809409 111.88486961 -44.13721605 109.68016787 -44.14648056 107.47546673 C-44.16296024 102.85381882 -44.17066844 98.23224324 -44.17356491 93.61056805 C-44.17893803 87.71291157 -44.21657893 81.81594346 -44.26230907 75.91848087 C-44.2921822 71.36287288 -44.29929075 66.80742831 -44.30029106 62.25173092 C-44.30447538 60.07898727 -44.3168371 57.90624232 -44.33780861 55.73359585 C-44.53193814 33.87654886 -44.53193814 33.87654886 -38.7480278 24.12863445 C-38.20444122 23.2114967 -37.66085464 22.29435894 -37.10079575 21.34942913 C-30.58971286 10.90478604 -20.64849367 4.26761207 -9.01694751 0.57978934 C-5.98232778 -0.02361832 -3.09488466 0.00179385 0 0 Z M-20.7480278 16.12863445 C-21.7380278 16.82988445 -22.7280278 17.53113445 -23.7480278 18.25363445 C-30.07143321 23.64761544 -32.91323262 31.56918064 -35.7480278 39.12863445 C-35.7480278 59.25863445 -35.7480278 79.38863445 -35.7480278 100.12863445 C116.7119722 100.12863445 269.1719722 100.12863445 426.2519722 100.12863445 C430.6401541 55.82781483 430.6401541 55.82781483 414.2519722 19.00363445 C408.83801392 13.74436069 403.48305829 11.14422853 396.2519722 9.12863445 C395.39084158 8.86389654 395.39084158 8.86389654 394.51231438 8.59381038 C391.51257631 7.9764676 388.66954998 7.99899677 385.60602856 7.99441338 C384.93611276 7.99206115 384.26619697 7.98970892 383.57598069 7.98728541 C381.32106527 7.9806046 379.0662076 7.98105335 376.81128311 7.98146343 C375.18224867 7.97816423 373.55321505 7.97443854 371.92418247 7.97032195 C367.43943216 7.96030015 362.95469523 7.95658487 358.4699353 7.95393264 C353.6360701 7.95003011 348.80221551 7.94045171 343.96835709 7.93171978 C332.29022739 7.91195359 320.61209682 7.90188881 308.93395457 7.89299199 C303.43487322 7.88860921 297.93579285 7.88324236 292.43671227 7.87800312 C274.15694853 7.86099043 255.8771854 7.84649629 237.59741497 7.83925438 C232.85327974 7.83734448 228.10914452 7.83542414 223.36500931 7.83346844 C222.18587328 7.8329847 221.00673725 7.83250096 219.79186983 7.83200256 C200.69093968 7.82370239 181.59007215 7.79836585 162.48916935 7.76588776 C142.87988315 7.73281702 123.27062878 7.71480559 103.66131455 7.71161014 C92.65094594 7.70944502 81.64066866 7.70069612 70.63032722 7.67514896 C61.25325349 7.65344178 51.87629325 7.64539166 42.49919724 7.65511575 C37.71606358 7.65966041 32.9331641 7.65776447 28.15006256 7.6383543 C23.76709472 7.62072178 19.38453189 7.62172107 15.00155974 7.63725159 C13.42006248 7.63962753 11.83853716 7.63530483 10.25708275 7.62342294 C-1.38278494 7.54142072 -11.26586419 8.85162517 -20.7480278 16.12863445 Z " fill="#631EEB" transform="translate(54.74802780151367,55.871365547180176)"/>
<path d="M0 0 C152.46 0 304.92 0 462 0 C462 32.48728814 462 32.48728814 451 44 C450.4534375 44.57492188 449.906875 45.14984375 449.34375 45.7421875 C446.10710668 48.81089178 442.93298135 50.56874017 438.76953125 52.16796875 C437.42725464 52.68846802 437.42725464 52.68846802 436.05786133 53.21948242 C435.37876709 53.47705322 434.69967285 53.73462402 434 54 C433.9906543 53.1121582 433.98130859 52.22431641 433.97167969 51.30957031 C433.92759319 48.00654081 433.86595254 44.70479993 433.79248047 41.40234375 C433.76430389 39.97473063 433.74307273 38.54696247 433.72900391 37.11914062 C433.70752608 35.06299668 433.66086026 33.00870998 433.609375 30.953125 C433.58842773 29.71723633 433.56748047 28.48134766 433.54589844 27.20800781 C432.88561705 23.32782114 432.08832633 22.37341487 429 20 C425.88316397 19.40004027 425.88316397 19.40004027 422.33450317 19.49663544 C421.32648372 19.48791479 421.32648372 19.48791479 420.29810023 19.47901797 C418.03577476 19.4643658 415.77452543 19.47832633 413.51220703 19.49206543 C411.87817897 19.48745854 410.24415506 19.48110706 408.61013985 19.47315645 C404.11176427 19.45641068 399.61372679 19.4647332 395.11534977 19.47710133 C390.26728552 19.48612811 385.4192806 19.47219391 380.57122803 19.46118164 C371.07067122 19.44336642 361.5702406 19.44724976 352.06967878 19.4588322 C344.35049876 19.46785446 336.63135419 19.46909577 328.91217041 19.46473694 C327.26615111 19.46381754 327.26615111 19.46381754 325.5868789 19.46287957 C323.35785595 19.46160071 321.12883301 19.46030385 318.89981008 19.4589892 C297.98311687 19.44757461 277.0664937 19.4607109 256.14981198 19.48219067 C238.19033436 19.50006244 220.23096014 19.49695858 202.27148438 19.47851562 C181.43121321 19.45712444 160.59100349 19.44867332 139.75072289 19.46096468 C137.52975846 19.46223892 135.30879403 19.4634964 133.08782959 19.46473694 C131.99498472 19.46535404 130.90213986 19.46597114 129.77617848 19.46660694 C122.0635189 19.47006511 114.35089819 19.46422148 106.63824463 19.45481873 C97.24301852 19.44361682 87.84792613 19.44660064 78.4527154 19.4679417 C73.65628604 19.47847651 68.86007989 19.4825327 64.06365204 19.46934509 C59.67670965 19.4574655 55.29019831 19.46391 50.90329528 19.4852553 C49.31251063 19.48974027 47.72168991 19.48741287 46.13092828 19.47775215 C43.97526018 19.4656604 41.82108574 19.47798686 39.66549683 19.49663544 C37.86659657 19.49760955 37.86659657 19.49760955 36.0313549 19.49860334 C32.37544183 20.1033041 31.19287242 21.05944072 29 24 C28.35856672 27.28116076 28.35856672 27.28116076 28.390625 30.953125 C28.37408875 31.61334656 28.35755249 32.27356812 28.34051514 32.95379639 C28.29211549 35.05262626 28.27068481 37.15073222 28.25 39.25 C28.22183317 40.6771196 28.19190472 42.10420559 28.16015625 43.53125 C28.08636237 47.02067609 28.03673721 50.50996472 28 54 C17.19990481 50.50237819 9.34019861 44.07915889 3.390625 34.375 C-2.0919949 22.79373548 0 13.81903948 0 0 Z " fill="#FDFCFE" transform="translate(19,165)"/>
<path d="M0 0 C0.88187988 -0.00394272 1.76375977 -0.00788544 2.67236328 -0.01194763 C5.58090425 -0.01864843 8.48786782 0.01048333 11.39624023 0.04077148 C13.41975093 0.04502259 15.44326651 0.04735027 17.46678162 0.0478363 C21.70447946 0.05399921 25.94164822 0.07668854 30.17919922 0.11230469 C35.61226504 0.15760569 41.04485209 0.17233234 46.47808933 0.1760416 C50.65509262 0.18046928 54.83199535 0.19577108 59.008955 0.21491814 C61.01243195 0.22379947 63.01591962 0.2305299 65.01941109 0.23507881 C67.81781186 0.24411771 70.61577913 0.26650491 73.4140625 0.29296875 C74.24274338 0.29363342 75.07142426 0.2942981 75.92521667 0.29498291 C83.15467149 0.38937876 83.15467149 0.38937876 86.14233398 2.59936523 C88.53261719 6.18479005 88.44858178 8.7927509 88.44311523 12.93530273 C88.44740036 13.65166901 88.45168549 14.36803528 88.45610046 15.10610962 C88.46183917 16.62077784 88.46234739 18.13547361 88.45800781 19.65014648 C88.45485466 21.95922331 88.47828668 24.26700993 88.50366211 26.57592773 C88.50593596 28.04988446 88.5066382 29.52384461 88.50561523 30.99780273 C88.51482498 31.68441986 88.52403473 32.37103699 88.53352356 33.07846069 C88.49200006 37.4157696 87.79280312 40.14644567 85.14233398 43.59936523 C81.81950203 45.26078121 78.09640125 44.77405124 74.44165039 44.79223633 C73.54070145 44.80041382 72.6397525 44.80859131 71.71150208 44.8170166 C68.72230703 44.84188276 65.73315945 44.85838816 62.74389648 44.87280273 C61.72469494 44.87812641 60.70549339 44.88345009 59.65540695 44.88893509 C54.26271059 44.91566971 48.87003742 44.93504517 43.47729492 44.94946289 C37.89936532 44.96612768 32.32202461 45.01092007 26.74431801 45.06183434 C22.4618357 45.09543841 18.17949448 45.10703272 13.89689255 45.11268997 C11.84033066 45.11941948 9.78377859 45.13468538 7.72734451 45.15858078 C4.85167199 45.19009369 1.97760548 45.19029022 -0.89819336 45.18286133 C-1.75028885 45.19926666 -2.60238434 45.215672 -3.4803009 45.23257446 C-7.61354731 45.18878227 -9.23874082 45.16544154 -12.3842926 42.28848267 C-14.29609574 38.79916821 -14.45150598 35.73342187 -14.42407227 31.84936523 C-14.43027084 31.11363281 -14.43646942 30.37790039 -14.44285583 29.61987305 C-14.44993452 28.07008177 -14.446814 26.52021413 -14.43408203 24.97045898 C-14.42020348 22.60574931 -14.45432033 20.24499174 -14.49243164 17.88061523 C-14.49338286 16.3701976 -14.49152385 14.85977505 -14.48657227 13.34936523 C-14.49983047 12.64714844 -14.51308868 11.94493164 -14.52674866 11.22143555 C-14.45971251 7.66887012 -13.99578996 5.78633626 -11.87182617 2.91123962 C-7.80564464 -0.20753989 -4.98751093 -0.0895005 0 0 Z " fill="#F9F7FE" transform="translate(60.857666015625,94.400634765625)"/>
<path d="M0 0 C128.7 0 257.4 0 390 0 C390 3.3 390 6.6 390 10 C261.3 10 132.6 10 0 10 C0 6.7 0 3.4 0 0 Z " fill="#F2EDFD" transform="translate(55,192)"/>
<path d="M0 0 C128.04 0 256.08 0 388 0 C388 2.97 388 5.94 388 9 C259.96 9 131.92 9 0 9 C0 6.03 0 3.06 0 0 Z " fill="#FFFFFF" transform="translate(56,211)"/>
<path d="M0 0 C0.88187988 -0.00394272 1.76375977 -0.00788544 2.67236328 -0.01194763 C5.58090425 -0.01864843 8.48786782 0.01048333 11.39624023 0.04077148 C13.41975093 0.04502259 15.44326651 0.04735027 17.46678162 0.0478363 C21.70447946 0.05399921 25.94164822 0.07668854 30.17919922 0.11230469 C35.61226504 0.15760569 41.04485209 0.17233234 46.47808933 0.1760416 C50.65509262 0.18046928 54.83199535 0.19577108 59.008955 0.21491814 C61.01243195 0.22379947 63.01591962 0.2305299 65.01941109 0.23507881 C67.81781186 0.24411771 70.61577913 0.26650491 73.4140625 0.29296875 C74.24274338 0.29363342 75.07142426 0.2942981 75.92521667 0.29498291 C83.15467149 0.38937876 83.15467149 0.38937876 86.14233398 2.59936523 C88.53261719 6.18479005 88.44858178 8.7927509 88.44311523 12.93530273 C88.44740036 13.65166901 88.45168549 14.36803528 88.45610046 15.10610962 C88.46183917 16.62077784 88.46234739 18.13547361 88.45800781 19.65014648 C88.45485466 21.95922331 88.47828668 24.26700993 88.50366211 26.57592773 C88.50593596 28.04988446 88.5066382 29.52384461 88.50561523 30.99780273 C88.51482498 31.68441986 88.52403473 32.37103699 88.53352356 33.07846069 C88.49200006 37.4157696 87.79280312 40.14644567 85.14233398 43.59936523 C81.81950203 45.26078121 78.09640125 44.77405124 74.44165039 44.79223633 C73.54070145 44.80041382 72.6397525 44.80859131 71.71150208 44.8170166 C68.72230703 44.84188276 65.73315945 44.85838816 62.74389648 44.87280273 C61.72469494 44.87812641 60.70549339 44.88345009 59.65540695 44.88893509 C54.26271059 44.91566971 48.87003742 44.93504517 43.47729492 44.94946289 C37.89936532 44.96612768 32.32202461 45.01092007 26.74431801 45.06183434 C22.4618357 45.09543841 18.17949448 45.10703272 13.89689255 45.11268997 C11.84033066 45.11941948 9.78377859 45.13468538 7.72734451 45.15858078 C4.85167199 45.19009369 1.97760548 45.19029022 -0.89819336 45.18286133 C-1.75028885 45.19926666 -2.60238434 45.215672 -3.4803009 45.23257446 C-7.61354731 45.18878227 -9.23874082 45.16544154 -12.3842926 42.28848267 C-14.29609574 38.79916821 -14.45150598 35.73342187 -14.42407227 31.84936523 C-14.43027084 31.11363281 -14.43646942 30.37790039 -14.44285583 29.61987305 C-14.44993452 28.07008177 -14.446814 26.52021413 -14.43408203 24.97045898 C-14.42020348 22.60574931 -14.45432033 20.24499174 -14.49243164 17.88061523 C-14.49338286 16.3701976 -14.49152385 14.85977505 -14.48657227 13.34936523 C-14.49983047 12.64714844 -14.51308868 11.94493164 -14.52674866 11.22143555 C-14.45971251 7.66887012 -13.99578996 5.78633626 -11.87182617 2.91123962 C-7.80564464 -0.20753989 -4.98751093 -0.0895005 0 0 Z M-5.85766602 8.59936523 C-5.85766602 17.83936523 -5.85766602 27.07936523 -5.85766602 36.59936523 C22.19233398 36.59936523 50.24233398 36.59936523 79.14233398 36.59936523 C79.14233398 27.35936523 79.14233398 18.11936523 79.14233398 8.59936523 C51.09233398 8.59936523 23.04233398 8.59936523 -5.85766602 8.59936523 Z " fill="#5F18EB" transform="translate(60.857666015625,94.400634765625)"/>
<path d="M0 0 C4.44460371 2.70162186 7.8480979 6.2586958 10.1875 10.9375 C10.96079636 19.8874546 10.53582421 26.44487995 4.92578125 33.53125 C0.4803443 37.73166287 -5.15483259 37.618663 -10.95898438 37.52954102 C-15.65116273 37.27880136 -19.09723417 36.73194409 -22.55078125 33.46875 C-27.44944649 27.52362067 -28.43253092 23.51218117 -28.125 15.8046875 C-27.39291277 9.08778717 -24.70915492 5.34835294 -19.53125 1.1015625 C-13.98104934 -2.65743704 -6.12969131 -1.70827463 0 0 Z " fill="#FBFBFB" transform="translate(317.8125,373.0625)"/>
<path d="M0 0 C4.44460371 2.70162186 7.8480979 6.2586958 10.1875 10.9375 C10.96079636 19.8874546 10.53582421 26.44487995 4.92578125 33.53125 C0.4803443 37.73166287 -5.15483259 37.618663 -10.95898438 37.52954102 C-15.65116273 37.27880136 -19.09723417 36.73194409 -22.55078125 33.46875 C-27.44944649 27.52362067 -28.43253092 23.51218117 -28.125 15.8046875 C-27.39291277 9.08778717 -24.70915492 5.34835294 -19.53125 1.1015625 C-13.98104934 -2.65743704 -6.12969131 -1.70827463 0 0 Z " fill="#FBFBFB" transform="translate(194.8125,373.0625)"/>
<path d="M0 0 C4.44460371 2.70162186 7.8480979 6.2586958 10.1875 10.9375 C10.96079636 19.8874546 10.53582421 26.44487995 4.92578125 33.53125 C0.4803443 37.73166287 -5.15483259 37.618663 -10.95898438 37.52954102 C-15.65116273 37.27880136 -19.09723417 36.73194409 -22.55078125 33.46875 C-27.44944649 27.52362067 -28.43253092 23.51218117 -28.125 15.8046875 C-27.39291277 9.08778717 -24.70915492 5.34835294 -19.53125 1.1015625 C-13.98104934 -2.65743704 -6.12969131 -1.70827463 0 0 Z " fill="#FBFBFB" transform="translate(149.8125,373.0625)"/>
<path d="M0 0 C4.19385088 1.35640282 6.38836615 3.11166982 9.25 6.4375 C9.93578125 7.21996094 10.6215625 8.00242188 11.328125 8.80859375 C14.97408921 13.58753282 14.66468707 19.25196754 14 25 C11.85839957 31.21248744 8.07579433 36.63830996 4.33203125 41.9921875 C1.98644346 45.52776558 0.45703739 48.48131673 0.53125 52.83203125 C1.16838876 55.77879802 2.54058377 58.05435514 4 60.6875 C7.68701916 67.65186953 8.39402784 73.89644043 6.30859375 81.53125 C5.5 83.75 5.5 83.75 4 87 C0.62537285 86.45276317 -1.08235 85.9451 -4 84 C-3.67 83.175 -3.34 82.35 -3 81.5 C-1.35864342 75.75525197 -0.8741559 72.24326543 -3.56640625 66.87890625 C-4.20449219 65.76386719 -4.84257812 64.64882813 -5.5 63.5 C-9.09308397 57.16655178 -10.32211529 54.00580202 -8.43359375 46.85546875 C-6.15972947 40.23160324 -2.31735774 34.51940897 1.64599609 28.796875 C4.56510921 24.40893657 5.74564642 21.4372801 5 16 C3.19242652 12.47773232 0.268991 10.17932733 -3 8 C-1.125 2.25 -1.125 2.25 0 0 Z " fill="#621DEB" transform="translate(381,243)"/>
<path d="M0 0 C4.22466256 1.35898236 6.3894079 3.13716654 9.25 6.5 C9.93578125 7.2940625 10.6215625 8.088125 11.328125 8.90625 C15.16987151 13.71740918 14.6304216 19.07546971 14 25 C11.90903615 31.22782766 8.07333549 36.6418263 4.33203125 41.9921875 C1.9841522 45.53121926 0.4572877 48.48531322 0.53125 52.83984375 C1.1637589 55.75465561 2.53551367 57.96856312 4 60.5625 C7.57624089 67.28380381 8.17139652 73.49943005 7 81 C5.46484375 84.4140625 5.46484375 84.4140625 4 87 C0.31245243 86.50168276 -1.60490662 85.89932357 -4 83 C-3.505 82.01 -3.505 82.01 -3 81 C-1.26870661 75.80611982 -1.04298504 72.09686263 -3.30859375 67.1328125 C-3.84613281 66.11960937 -4.38367188 65.10640625 -4.9375 64.0625 C-8.06711314 58.13779294 -10.00178642 53.47254253 -8.50390625 46.78515625 C-6.21981573 40.21702993 -2.29015172 34.48121309 1.64575195 28.79663086 C4.56548042 24.40913226 5.74562268 21.437107 5 16 C3.19242652 12.47773232 0.268991 10.17932733 -3 8 C-1.125 2.25 -1.125 2.25 0 0 Z " fill="#621DEB" transform="translate(180,243)"/>
<path d="M0 0 C4.22466256 1.35898236 6.3894079 3.13716654 9.25 6.5 C9.93578125 7.2940625 10.6215625 8.088125 11.328125 8.90625 C15.16987151 13.71740918 14.6304216 19.07546971 14 25 C11.90903615 31.22782766 8.07333549 36.6418263 4.33203125 41.9921875 C1.98644346 45.52776558 0.45703739 48.48131673 0.53125 52.83203125 C1.16838876 55.77879802 2.54058377 58.05435514 4 60.6875 C7.68701916 67.65186953 8.39402784 73.89644043 6.30859375 81.53125 C5.5 83.75 5.5 83.75 4 87 C0.62537285 86.45276317 -1.08235 85.9451 -4 84 C-3.67 83.175 -3.34 82.35 -3 81.5 C-0.95363867 74.33773536 -1.49720161 70.55534133 -4.9375 64.0625 C-8.06711314 58.13779294 -10.00178642 53.47254253 -8.50390625 46.78515625 C-6.21981573 40.21702993 -2.29015172 34.48121309 1.64575195 28.79663086 C4.56548042 24.40913226 5.74562268 21.437107 5 16 C3.19242652 12.47773232 0.268991 10.17932733 -3 8 C-1.125 2.25 -1.125 2.25 0 0 Z " fill="#621CEB" transform="translate(247,243)"/>
<path d="M0 0 C4.22466256 1.35898236 6.3894079 3.13716654 9.25 6.5 C9.93578125 7.2940625 10.6215625 8.088125 11.328125 8.90625 C15.16987151 13.71740918 14.6304216 19.07546971 14 25 C11.90903615 31.22782766 8.07333549 36.6418263 4.33203125 41.9921875 C1.9841522 45.53121926 0.4572877 48.48531322 0.53125 52.83984375 C1.1637589 55.75465561 2.53551367 57.96856312 4 60.5625 C7.57624089 67.28380381 8.17139652 73.49943005 7 81 C5.46484375 84.4140625 5.46484375 84.4140625 4 87 C0.31245243 86.50168276 -1.60490662 85.89932357 -4 83 C-3.505 82.01 -3.505 82.01 -3 81 C-1.28613811 75.85841434 -0.97133025 72.11415555 -3.34375 67.23828125 C-4.16359375 65.75908203 -4.16359375 65.75908203 -5 64.25 C-8.30300034 57.99002793 -9.35552312 52.9959549 -8 46 C-5.6159663 39.50037129 -1.96265607 33.9088121 1.875 28.1875 C3.98345814 24.92641808 4.9894773 23.0534904 5.75 19.1875 C4.49763085 13.86493111 1.55185299 11.03456866 -3 8 C-1.125 2.25 -1.125 2.25 0 0 Z " fill="#611CEB" transform="translate(113,243)"/>
<path d="M0 0 C4.19385088 1.35640282 6.38836615 3.11166982 9.25 6.4375 C9.93578125 7.21996094 10.6215625 8.00242188 11.328125 8.80859375 C14.97408921 13.58753282 14.66468707 19.25196754 14 25 C11.85839957 31.21248744 8.07579433 36.63830996 4.33203125 41.9921875 C1.98644346 45.52776558 0.45703739 48.48131673 0.53125 52.83203125 C1.16838876 55.77879802 2.54058377 58.05435514 4 60.6875 C7.68701916 67.65186953 8.39402784 73.89644043 6.30859375 81.53125 C5.5 83.75 5.5 83.75 4 87 C0.62537285 86.45276317 -1.08235 85.9451 -4 84 C-3.67 83.175 -3.34 82.35 -3 81.5 C-1.46774744 76.13711603 -0.8555416 72.31885902 -3.34375 67.27734375 C-3.8903125 66.29894531 -4.436875 65.32054687 -5 64.3125 C-8.45775426 57.7756979 -9.34415925 52.29815324 -8 45 C-6.0339297 39.9158112 -3.09133398 35.60759377 -0.04296875 31.1171875 C3.73141501 25.53710795 3.73141501 25.53710795 5.75 19.1875 C4.49763085 13.86493111 1.55185299 11.03456866 -3 8 C-1.125 2.25 -1.125 2.25 0 0 Z " fill="#611BEB" transform="translate(314,243)"/>
<path d="M0 0 C18 0 18 0 23 3 C25.73004414 5.88570456 26.45074685 7.92243474 26.5 11.875 C26.39002957 15.42547401 26.01414616 17.68022606 23.8125 20.5 C17.89944828 25.75604598 12.5877054 25.18283627 5 25 C5 28.96 5 32.92 5 37 C3.35 37 1.7 37 0 37 C0 24.79 0 12.58 0 0 Z " fill="#272727" transform="translate(258,373)"/>
<path d="M0 0 C4.44460371 2.70162186 7.8480979 6.2586958 10.1875 10.9375 C10.96079636 19.8874546 10.53582421 26.44487995 4.92578125 33.53125 C0.4803443 37.73166287 -5.15483259 37.618663 -10.95898438 37.52954102 C-15.65116273 37.27880136 -19.09723417 36.73194409 -22.55078125 33.46875 C-27.44944649 27.52362067 -28.43253092 23.51218117 -28.125 15.8046875 C-27.39291277 9.08778717 -24.70915492 5.34835294 -19.53125 1.1015625 C-13.98104934 -2.65743704 -6.12969131 -1.70827463 0 0 Z M-21.8125 9.9375 C-23.9044391 14.12137819 -23.24131535 19.38133693 -22.8125 23.9375 C-20.70208968 28.39281067 -18.41722604 31.09560959 -13.8125 32.9375 C-8.1676102 33.69015197 -3.5864415 33.26815686 1.1875 29.9375 C5.68486591 25.32178236 5.62897157 20.96090781 5.62109375 14.83984375 C4.95599161 10.38785376 3.43525538 7.89327222 -0.1328125 5.16015625 C-8.24060911 1.46082631 -16.28429165 3.03171222 -21.8125 9.9375 Z " fill="#272727" transform="translate(317.8125,373.0625)"/>
<path d="M0 0 C4.44460371 2.70162186 7.8480979 6.2586958 10.1875 10.9375 C10.96079636 19.8874546 10.53582421 26.44487995 4.92578125 33.53125 C0.4803443 37.73166287 -5.15483259 37.618663 -10.95898438 37.52954102 C-15.65116273 37.27880136 -19.09723417 36.73194409 -22.55078125 33.46875 C-27.44944649 27.52362067 -28.43253092 23.51218117 -28.125 15.8046875 C-27.39291277 9.08778717 -24.70915492 5.34835294 -19.53125 1.1015625 C-13.98104934 -2.65743704 -6.12969131 -1.70827463 0 0 Z M-21.8125 9.9375 C-23.9044391 14.12137819 -23.24131535 19.38133693 -22.8125 23.9375 C-20.70208968 28.39281067 -18.41722604 31.09560959 -13.8125 32.9375 C-8.1676102 33.69015197 -3.5864415 33.26815686 1.1875 29.9375 C5.68486591 25.32178236 5.62897157 20.96090781 5.62109375 14.83984375 C4.95599161 10.38785376 3.43525538 7.89327222 -0.1328125 5.16015625 C-8.24060911 1.46082631 -16.28429165 3.03171222 -21.8125 9.9375 Z " fill="#272727" transform="translate(194.8125,373.0625)"/>
<path d="M0 0 C4.44460371 2.70162186 7.8480979 6.2586958 10.1875 10.9375 C10.96079636 19.8874546 10.53582421 26.44487995 4.92578125 33.53125 C0.4803443 37.73166287 -5.15483259 37.618663 -10.95898438 37.52954102 C-15.65116273 37.27880136 -19.09723417 36.73194409 -22.55078125 33.46875 C-27.44944649 27.52362067 -28.43253092 23.51218117 -28.125 15.8046875 C-27.39291277 9.08778717 -24.70915492 5.34835294 -19.53125 1.1015625 C-13.98104934 -2.65743704 -6.12969131 -1.70827463 0 0 Z M-21.8125 9.9375 C-23.9044391 14.12137819 -23.24131535 19.38133693 -22.8125 23.9375 C-20.70208968 28.39281067 -18.41722604 31.09560959 -13.8125 32.9375 C-8.1676102 33.69015197 -3.5864415 33.26815686 1.1875 29.9375 C5.68486591 25.32178236 5.62897157 20.96090781 5.62109375 14.83984375 C4.95599161 10.38785376 3.43525538 7.89327222 -0.1328125 5.16015625 C-8.24060911 1.46082631 -16.28429165 3.03171222 -21.8125 9.9375 Z " fill="#272727" transform="translate(149.8125,373.0625)"/>
<path d="M0 0 C1.65 0 3.3 0 5 0 C5 12.54 5 25.08 5 38 C3.35 38 1.7 38 0 38 C-2.01245767 35.7954441 -3.59823595 33.76558841 -5.25 31.3125 C-5.72091064 30.6414624 -6.19182129 29.9704248 -6.67700195 29.27905273 C-8.1336163 27.19639059 -9.5671042 25.0990279 -11 23 C-11.9033132 21.70198584 -12.80819528 20.40506171 -13.71484375 19.109375 C-15.83019519 16.0860544 -17.91354682 13.04416939 -20 10 C-20.33 19.24 -20.66 28.48 -21 38 C-22.32 38 -23.64 38 -25 38 C-25 25.79 -25 13.58 -25 1 C-20 1 -20 1 -18.33422852 2.50952148 C-17.85397217 3.20634033 -17.37371582 3.90315918 -16.87890625 4.62109375 C-16.33556641 5.39259766 -15.79222656 6.16410156 -15.23242188 6.95898438 C-14.68134766 7.77689453 -14.13027344 8.59480469 -13.5625 9.4375 C-13.01529297 10.22060547 -12.46808594 11.00371094 -11.90429688 11.81054688 C-8.18860724 17.15322486 -4.61011042 22.58483437 -1 28 C-0.67 18.76 -0.34 9.52 0 0 Z " fill="#272727" transform="translate(378,372)"/>
<path d="M0 0 C4.47650765 2.57232156 7.17675446 5.54625836 9.59375 10.078125 C9.59375 10.738125 9.59375 11.398125 9.59375 12.078125 C7.40625 12.453125 7.40625 12.453125 4.59375 12.078125 C2.85901288 10.13687156 1.1891849 8.13539632 -0.40625 6.078125 C-5.02970627 4.53697291 -9.57796649 4.5691405 -14.40625 5.078125 C-17.56869367 6.820696 -18.84959666 8.17687674 -20.71875 11.203125 C-21.99635022 16.54581683 -22.26181079 21.84416072 -20.28125 27.015625 C-16.97557404 30.65186855 -13.81788125 31.92412886 -8.96875 32.453125 C-4.852343 32.019819 -2.02211447 31.0946648 1.59375 29.078125 C2.59943242 27.41488099 3.60039799 25.74876247 4.59375 24.078125 C7.28125 23.765625 7.28125 23.765625 9.59375 24.078125 C8.96434787 29.45581081 6.68631922 31.26548015 2.63671875 34.5625 C-1.763335 37.82678462 -5.65583988 38.5870929 -11.0625 38.4609375 C-16.37631764 37.59301395 -20.16346909 34.38631543 -23.78125 30.578125 C-27.64836035 24.62872447 -28.3347746 19.04694645 -27.40625 12.078125 C-25.43980795 6.65440344 -21.7974429 2.71968589 -16.77734375 -0.0703125 C-11.29916916 -2.03776235 -5.44593794 -2.08643077 0 0 Z " fill="#282828" transform="translate(105.40625,372.921875)"/>
<path d="M0 0 C9.9 0 19.8 0 30 0 C30 1.65 30 3.3 30 5 C25.71 5 21.42 5 17 5 C17 15.89 17 26.78 17 38 C15.68 38 14.36 38 13 38 C13 27.11 13 16.22 13 5 C8.71 5 4.42 5 0 5 C0 3.35 0 1.7 0 0 Z " fill="#272727" transform="translate(390,372)"/>
<path d="M0 0 C1.65 0 3.3 0 5 0 C5 11.22 5 22.44 5 34 C10.94 34 16.88 34 23 34 C23 35.32 23 36.64 23 38 C15.41 38 7.82 38 0 38 C0 25.46 0 12.92 0 0 Z " fill="#272727" transform="translate(214,372)"/>
<path d="M0 0 C12.3192436 -0.49276974 12.3192436 -0.49276974 15.390625 1.73046875 C17.18839514 4.26567373 17.54160635 5.48883063 17.5 8.5625 C17.5103125 9.32691406 17.520625 10.09132813 17.53125 10.87890625 C17 13 17 13 15.390625 14.765625 C12.20683529 16.40954256 9.81309482 16.29439284 6.25 16.1875 C4.1875 16.125625 2.125 16.06375 0 16 C0 10.72 0 5.44 0 0 Z " fill="#F5F5F5" transform="translate(262,377)"/>
<path d="M0 0 C1.65 0 3.3 0 5 0 C5 12.54 5 25.08 5 38 C3.35 38 1.7 38 0 38 C0 25.46 0 12.92 0 0 Z " fill="#2B2B2B" transform="translate(337,372)"/>
<path d="M0 0 C6.93359375 -0.09765625 6.93359375 -0.09765625 9 0 C10 1 10 1 10.1875 4.4375 C10 8 10 8 8 10 C8.99 11.65 9.98 13.3 11 15 C7.83884224 13.63016497 7.0072908 13.0109362 5 10 C2.94074861 9.27617533 2.94074861 9.27617533 1 9 C1 10.98 1 12.96 1 15 C0.67 15 0.34 15 0 15 C0 10.05 0 5.1 0 0 Z " fill="#393939" transform="translate(283,429)"/>
<path d="M0 0 C6.0546875 -0.1953125 6.0546875 -0.1953125 8 0 C10 2 10 2 10.3125 5 C10.1578125 6.485 10.1578125 6.485 10 8 C6.5647952 10.29013653 5.014669 10.17842973 1 10 C1 11.65 1 13.3 1 15 C0.67 15 0.34 15 0 15 C0 10.05 0 5.1 0 0 Z " fill="#A1A1A1" transform="translate(246,429)"/>
<path d="M0 0 C0.66 0 1.32 0 2 0 C3.98 4.95 5.96 9.9 8 15 C7.34 15 6.68 15 6 15 C5.67 13.68 5.34 12.36 5 11 C3.741875 11.103125 2.48375 11.20625 1.1875 11.3125 C0.12595703 11.39951172 0.12595703 11.39951172 -0.95703125 11.48828125 C-3.41511279 12.10397663 -4.38136299 13.09542081 -6 15 C-4.36041242 9.76727367 -2.61047965 4.84803364 0 0 Z " fill="#454545" transform="translate(222,429)"/>
<path d="M0 0 C2.875 -0.125 2.875 -0.125 6 0 C8 2 8 2 8 6 C5.29120665 7.35439668 2.99066732 7.06501451 0 7 C0 4.69 0 2.38 0 0 Z " fill="#F7F7F7" transform="translate(284,430)"/>
<path d="M0 0 C0.66 0.33 1.32 0.66 2 1 C2.73075648 3.3140622 3.40138258 5.64828869 4 8 C2.02 8 0.04 8 -2 8 C-1.47731534 5.23723823 -0.89130413 2.6739124 0 0 Z " fill="#EDEDED" transform="translate(222,431)"/>
</svg>
